<svg version="1.1" id="Layer_1" xmlns="http://www.w3.org/2000/svg" xmlns:xlink="http://www.w3.org/1999/xlink" x="0px"
  y="0px" width="100%" viewBox="0 0 1024 1024" enable-background="new 0 0 1024 1024" xml:space="preserve">
  <path fill="var(--logo-fill, #000000)" opacity="1.000000" stroke="none" d="
M879.901367,818.926270 
	C860.765808,835.124146 838.620667,844.276306 814.952759,850.261230 
	C793.934143,855.576111 772.559570,858.203186 750.933594,859.521057 
	C739.771729,860.201233 728.633606,860.135559 717.483887,860.409729 
	C713.781128,860.500732 712.576599,859.111328 712.601746,855.460510 
	C712.732361,836.463562 712.740479,817.464722 712.606384,798.467834 
	C712.579895,794.712280 713.980530,793.607788 717.583618,793.617615 
	C730.563110,793.652954 743.554871,794.071228 756.507324,792.667053 
	C778.423462,790.291077 800.269348,787.700256 818.513977,773.514465 
	C829.510925,764.963989 835.107117,753.504944 836.711304,739.791260 
	C838.491699,724.570862 835.770996,709.669556 833.912109,694.707214 
	C831.580261,675.937683 829.163452,657.177490 826.609436,638.437012 
	C824.070007,619.803284 822.345398,601.159119 822.577576,582.296936 
	C822.976807,549.866394 843.786499,519.588745 874.195251,508.126129 
	C875.721680,507.550751 877.441345,507.338562 878.832581,505.775208 
	C877.347656,503.513641 874.723999,503.274963 872.544250,502.391876 
	C844.526855,491.040192 828.091980,470.369324 823.700745,440.560852 
	C821.240479,423.860107 822.807800,407.093170 824.393921,390.325623 
	C826.520874,367.841736 829.784851,345.515076 832.794800,323.155914 
	C834.567078,309.990997 836.628235,296.848328 837.331848,283.596924 
	C838.753784,256.818451 829.157410,234.484192 796.984985,223.439941 
	C783.182495,218.701752 768.833191,217.185318 754.366150,216.328751 
	C741.893127,215.590256 729.416199,215.116669 716.923889,215.390884 
	C713.638123,215.463028 712.608826,214.079163 712.624573,210.928238 
	C712.716309,192.597458 712.701538,174.265930 712.647644,155.934875 
	C712.639404,153.127289 713.411743,151.671371 716.572632,151.627243 
	C751.040649,151.146057 785.463135,151.297699 819.191101,159.836716 
	C844.281616,166.188934 867.498840,176.421143 885.729309,195.397659 
	C907.098694,217.641647 916.294312,244.404617 913.540039,275.235046 
	C910.583740,308.327454 905.619995,341.170715 901.549377,374.125397 
	C899.574280,390.114838 897.817322,406.155792 897.350891,422.287964 
	C896.506897,451.483185 914.102295,467.320343 938.892395,471.643097 
	C951.710815,473.878265 964.642517,474.493286 977.619385,474.586884 
	C978.924072,474.596313 980.228027,474.711670 981.367126,474.769470 
	C982.759338,476.440674 982.309265,478.176453 982.312622,479.782349 
	C982.347900,496.613739 982.165710,513.447937 982.438293,530.274963 
	C982.519043,535.255310 980.700500,536.497559 976.060730,536.387512 
	C961.224976,536.035767 946.402771,536.596252 932.089050,541.008118 
	C908.499756,548.279053 899.730286,563.179565 898.535217,584.752563 
	C897.513794,603.190857 900.555542,621.510742 902.979858,639.791138 
	C904.899353,654.264893 906.594360,668.768860 908.335205,683.265869 
	C909.877869,696.112549 911.215088,708.985107 912.873596,721.816467 
	C916.732544,751.673523 914.182007,780.002380 894.215393,804.502136 
	C889.971191,809.709900 884.935059,814.046692 879.901367,818.926270 
z" />
  <path fill="var(--logo-fill, #000000)" opacity="1.000000" stroke="none" d="
M212.190872,859.217285 
	C198.570343,857.340759 185.480927,855.102844 172.724289,851.251404 
	C148.567245,843.957947 128.017715,831.713013 114.307762,809.616150 
	C106.464676,796.975159 102.499138,783.211182 101.756119,768.598267 
	C100.645859,746.763000 103.656075,725.156372 106.425613,703.556030 
	C108.936806,683.970520 111.219696,664.355896 113.677162,644.763367 
	C116.033005,625.981018 118.875458,607.265564 118.713432,588.237427 
	C118.473129,560.016052 100.863205,539.599854 72.848831,535.356201 
	C61.656208,533.660645 50.448055,532.271118 39.112022,532.409058 
	C35.961086,532.447388 34.612389,531.370422 34.629051,528.090454 
	C34.715389,511.093628 34.765144,494.095154 34.591805,477.099640 
	C34.549324,472.934296 36.699993,472.571228 39.906750,472.640808 
	C54.399555,472.955322 68.807915,472.567657 82.980392,468.827362 
	C107.114655,462.458008 119.521751,446.403625 119.723122,421.421478 
	C119.860367,404.394226 117.012955,387.693054 114.908012,370.905640 
	C112.555771,352.145935 110.062798,333.403900 107.631180,314.654175 
	C105.753853,300.178528 103.749420,285.717957 102.032669,271.223297 
	C100.028786,254.304306 99.259270,237.371689 104.139114,220.749573 
	C110.292046,199.790939 124.271248,185.047073 142.334732,173.786514 
	C160.289642,162.593613 180.295227,157.235748 200.913071,153.611404 
	C219.382446,150.364761 237.993408,150.579865 256.624207,150.606995 
	C260.451508,150.612564 261.420532,152.139801 261.397339,155.670288 
	C261.278229,173.833267 261.224091,191.998657 261.419617,210.160263 
	C261.465851,214.454971 259.841003,215.442200 255.870697,215.463013 
	C238.882156,215.551941 221.941254,216.391724 205.693176,222.079895 
	C182.057022,230.354507 175.579132,247.835785 177.630371,270.039825 
	C179.325302,288.386749 182.023544,306.602936 184.372925,324.864380 
	C186.382477,340.484344 188.620071,356.074829 190.728012,371.682251 
	C192.216110,382.700348 193.402771,393.748169 194.441544,404.821747 
	C195.174271,412.632996 195.643753,420.432465 195.296082,428.235992 
	C193.830292,461.136017 178.427979,484.958252 148.587662,499.258514 
	C145.507828,500.734467 141.984283,501.441467 139.525085,503.976196 
	C139.882919,506.539764 141.958313,506.796082 143.538376,507.474274 
	C173.026718,520.130859 190.452713,541.842712 194.531631,574.094727 
	C196.458847,589.333069 194.501038,604.296387 192.862122,619.307739 
	C191.278366,633.813660 189.216415,648.267395 187.360046,662.743530 
	C185.544983,676.897522 183.588104,691.035095 181.942993,705.208801 
	C180.162918,720.545410 177.563690,735.862000 178.407425,751.367004 
	C179.386353,769.356262 189.815765,780.653381 205.640762,787.524597 
	C215.960556,792.005432 227.015228,793.687317 238.136444,794.579224 
	C244.590424,795.096863 251.033875,796.161865 257.553192,795.677063 
	C260.335358,795.470093 261.362061,796.856384 261.354675,799.569214 
	C261.301910,818.899170 261.273041,838.229614 261.362946,857.559265 
	C261.380341,861.303650 259.163300,861.300903 256.465973,861.373535 
	C241.801910,861.768433 227.205170,860.887695 212.190872,859.217285 
z" />
  <path fill="var(--logo-fill, #000000)" opacity="1.000000" stroke="none" d="
M372.227783,258.245972 
	C383.637390,243.187683 394.835693,228.412796 406.928619,212.457565 
	C409.019806,219.074142 410.665985,224.046722 412.163788,229.063614 
	C418.012024,248.652237 423.730438,268.280182 429.702179,287.830872 
	C430.886475,291.708191 430.482422,294.703888 427.989746,297.947845 
	C392.769409,343.783600 357.637268,389.687073 322.489441,435.578552 
	C305.575348,457.662750 288.709503,479.784180 271.717804,501.808502 
	C269.683319,504.445526 269.973755,506.291016 271.883728,508.805725 
	C320.851227,573.276367 369.753265,637.796692 418.660645,702.312988 
	C419.565674,703.506836 420.207520,704.966309 421.292847,705.946899 
	C430.242554,714.033447 430.407440,722.919373 426.421844,734.028259 
	C419.469116,753.407227 414.223694,773.398621 408.251038,793.129761 
	C407.776215,794.698364 407.211456,796.239807 406.694305,797.776672 
	C403.966156,797.991150 403.157257,795.896423 402.024139,794.386719 
	C368.325287,749.487976 334.635193,704.582703 300.977783,659.652832 
	C270.714874,619.254272 240.513519,578.809570 210.210632,538.440979 
	C207.791977,535.218994 206.626160,531.981934 206.675217,527.883789 
	C206.858734,512.554382 206.789505,497.220306 206.634857,481.889801 
	C206.599472,478.382660 207.395157,475.490906 209.551590,472.663971 
	C251.064713,418.243164 291.703217,363.159729 333.609619,309.035767 
	C346.557495,292.313019 359.222198,275.371033 372.227783,258.245972 
z" />
  <path fill="var(--logo-fill, #000000)" opacity="1.000000" stroke="none" d="
M627.155518,250.000519 
	C625.435364,375.629944 626.194580,500.766907 626.644409,625.896729 
	C626.819275,674.539978 627.014771,723.191528 627.419250,771.837708 
	C627.476013,778.663208 627.686096,785.495850 628.117737,792.306641 
	C628.372742,796.330688 626.755920,797.465759 622.922607,797.440308 
	C603.594299,797.311646 584.262756,797.252258 564.936523,797.496338 
	C560.036865,797.558228 558.743103,795.885254 558.788635,791.160522 
	C559.226929,745.679504 559.216553,700.193420 559.811829,654.714966 
	C560.629517,592.237183 561.188843,529.754272 560.466187,467.281372 
	C559.891846,417.630554 560.249329,367.975311 559.436707,318.335205 
	C558.874878,284.013428 559.063782,249.698090 558.799316,215.380798 
	C558.747742,208.689774 558.829773,208.669373 565.371582,208.665985 
	C584.034302,208.656342 602.698364,208.782486 621.358887,208.580154 
	C625.876404,208.531158 627.487732,209.837219 627.356995,214.510696 
	C627.030884,226.166702 627.192993,237.836349 627.155518,250.000519 
z" />
  <path fill="var(--logo-fill, #000000)" opacity="1.000000" stroke="none" d="
M457.663025,473.840363 
	C474.930359,478.995941 485.867584,489.689301 489.517944,507.202362 
	C493.931122,528.375366 479.906311,550.128113 458.745422,555.047180 
	C435.243439,560.510498 413.486328,548.291687 407.462555,526.246765 
	C399.119324,495.713470 424.540192,468.004272 455.763367,473.593536 
	C456.253296,473.681244 456.755432,473.700470 457.663025,473.840363 
z" />
</svg>